<svg xmlns="http://www.w3.org/2000/svg" xmlns:xlink="http://www.w3.org/1999/xlink" width="109" height="109" viewBox="0 0 109 109">
  <defs>
    <radialGradient id="radial-gradient" cx="0.5" cy="0.5" r="1.1" gradientUnits="objectBoundingBox">
      <stop offset="0" stop-color="#e8ad39"/>
      <stop offset="1" stop-color="#eb5e28"/>
    </radialGradient>
  </defs>
  <g id="Group_27" data-name="Group 27" transform="translate(0.025)">
    <circle id="Ellipse_3" data-name="Ellipse 3" cx="54.5" cy="54.5" r="54.5" transform="translate(-0.025)" fill="url(#radial-gradient)"/>
    <path id="Icon_ionic-md-football" data-name="Icon ionic-md-football" d="M28.375,3.375a25,25,0,1,0,25,25A25.027,25.027,0,0,0,28.375,3.375ZM12.87,26.236l4.712,2.151,2.055,8.041L17.762,39.95l-6.875-.084a20.992,20.992,0,0,1-3.305-9.05ZM38.988,39.95l-1.875-3.522,2.055-8.053,4.7-2.139,5.288,4.579a20.839,20.839,0,0,1-3.305,9.05Zm3.894-17.572-5.24,2.356-7.344-6.2V12.858L36.055,8.94a21.432,21.432,0,0,1,9.087,6.947ZM20.6,8.952l5.733,3.906v5.673L19,24.721l-5.168-2.356-2.248-6.442A20.815,20.815,0,0,1,20.6,8.952Zm3.257,39.856c-.084-.024-.156-.036-.24-.06l-2.464-6.623,1.767-3.534H33.832l1.8,3.642-2.38,6.478c-.12.024-.24.06-.361.084a30.3,30.3,0,0,1-4.856.493A20.381,20.381,0,0,1,23.856,48.808Z" transform="translate(26.625 26.625)" fill="#252422"/>
  </g>
</svg>
