<svg xmlns="http://www.w3.org/2000/svg" width="20" height="20" viewBox="0 0 20 20">
  <path id="Icon_ionic-md-football" data-name="Icon ionic-md-football" d="M13.375,3.375a10,10,0,1,0,10,10A10.011,10.011,0,0,0,13.375,3.375Zm-6.2,9.144,1.885.861L9.88,16.6,9.13,18l-2.75-.034a8.4,8.4,0,0,1-1.322-3.62ZM17.62,18,16.87,16.6l.822-3.221,1.88-.856,2.115,1.832a8.335,8.335,0,0,1-1.322,3.62Zm1.558-7.029-2.1.942L14.144,9.438V7.168l2.3-1.567A8.573,8.573,0,0,1,20.082,8.38Zm-8.913-5.37,2.293,1.563V9.437L9.625,11.913l-2.067-.942-.9-2.577A8.326,8.326,0,0,1,10.264,5.606Zm1.3,15.942c-.034-.01-.062-.014-.1-.024l-.986-2.649.707-1.413h4.365l.721,1.457-.952,2.591c-.048.01-.1.024-.144.034a12.121,12.121,0,0,1-1.942.2A8.152,8.152,0,0,1,11.567,21.548Z" transform="translate(-3.375 -3.375)" fill="#fffcf2"/>
</svg>
