<svg xmlns="http://www.w3.org/2000/svg" width="25" height="12.5" viewBox="0 0 25 12.5">
  <path id="Icon_awesome-bone" data-name="Icon awesome-bone" d="M23.394,12.553A2.906,2.906,0,0,0,25,9.954v-.3a2.906,2.906,0,0,0-5.663-.919c-.3.9-.453,1.763-1.489,1.763H7.151c-1.07,0-1.234-1-1.489-1.763A2.906,2.906,0,0,0,0,9.656v.3a2.906,2.906,0,0,0,1.606,2.6.5.5,0,0,1,0,.894A2.906,2.906,0,0,0,0,16.046v.3a2.906,2.906,0,0,0,5.662.919c.3-.9.453-1.763,1.489-1.763h10.7c1.07,0,1.234,1,1.489,1.763A2.906,2.906,0,0,0,25,16.344v-.3a2.905,2.905,0,0,0-1.606-2.6A.5.5,0,0,1,23.394,12.553Z" transform="translate(0 -6.75)" fill="#fffcf2"/>
</svg>
