<svg xmlns="http://www.w3.org/2000/svg" width="18.249" height="18.245" viewBox="0 0 18.249 18.245">
  <path id="Icon_awesome-instagram" data-name="Icon awesome-instagram" d="M9.121,6.682A4.678,4.678,0,1,0,13.8,11.36,4.67,4.67,0,0,0,9.121,6.682Zm0,7.719a3.041,3.041,0,1,1,3.041-3.041A3.047,3.047,0,0,1,9.121,14.4Zm5.96-7.91A1.091,1.091,0,1,1,13.99,5.4,1.089,1.089,0,0,1,15.081,6.491Zm3.1,1.107a5.4,5.4,0,0,0-1.474-3.823A5.435,5.435,0,0,0,12.883,2.3c-1.506-.085-6.021-.085-7.528,0a5.427,5.427,0,0,0-3.823,1.47A5.417,5.417,0,0,0,.059,7.594c-.085,1.506-.085,6.021,0,7.528a5.4,5.4,0,0,0,1.474,3.823,5.442,5.442,0,0,0,3.823,1.474c1.506.085,6.021.085,7.528,0a5.4,5.4,0,0,0,3.823-1.474,5.435,5.435,0,0,0,1.474-3.823c.085-1.506.085-6.017,0-7.523Zm-1.946,9.14A3.079,3.079,0,0,1,14.5,18.472c-1.2.476-4.051.366-5.378.366s-4.181.106-5.378-.366a3.079,3.079,0,0,1-1.734-1.734c-.476-1.2-.366-4.051-.366-5.378s-.106-4.181.366-5.378A3.079,3.079,0,0,1,3.743,4.248c1.2-.476,4.051-.366,5.378-.366s4.181-.106,5.378.366a3.079,3.079,0,0,1,1.734,1.734c.476,1.2.366,4.051.366,5.378S16.71,15.541,16.233,16.738Z" transform="translate(0.005 -2.238)" fill="#fffcf2"/>
</svg>
