<svg xmlns="http://www.w3.org/2000/svg" width="22.857" height="20" viewBox="0 0 22.857 20">
  <path id="Icon_awesome-shower" data-name="Icon awesome-shower" d="M17.4,6.875l-7.056,7.056a1.072,1.072,0,0,1-1.515,0l-.505-.505a1.072,1.072,0,0,1,0-1.515l0,0a5.009,5.009,0,0,1-.151-6.267,3.469,3.469,0,0,0-5.315,2.94V22.25H0V8.579A6.325,6.325,0,0,1,10.608,3.921a5.01,5.01,0,0,1,4.762.939l0,0a1.072,1.072,0,0,1,1.515,0l.505.505A1.072,1.072,0,0,1,17.4,6.875Zm-.253,3.232a.714.714,0,1,1-.714-.714A.714.714,0,0,1,17.143,10.107Zm1.429,0a.714.714,0,1,1,.714.714A.714.714,0,0,1,18.571,10.107Zm4.286,0a.714.714,0,1,1-.714-.714A.714.714,0,0,1,22.857,10.107Zm-7.143,1.429A.714.714,0,1,1,15,10.821.714.714,0,0,1,15.714,11.536Zm2.143-.714a.714.714,0,1,1-.714.714A.714.714,0,0,1,17.857,10.821Zm3.571.714a.714.714,0,1,1-.714-.714A.714.714,0,0,1,21.429,11.536Zm-7.143,1.429a.714.714,0,1,1-.714-.714A.714.714,0,0,1,14.286,12.964Zm1.429,0a.714.714,0,1,1,.714.714A.714.714,0,0,1,15.714,12.964Zm4.286,0a.714.714,0,1,1-.714-.714A.714.714,0,0,1,20,12.964Zm-5.714,1.429a.714.714,0,1,1,.714.714A.714.714,0,0,1,14.286,14.393Zm4.286,0a.714.714,0,1,1-.714-.714A.714.714,0,0,1,18.571,14.393Zm-4.286,1.429a.714.714,0,1,1-.714-.714A.714.714,0,0,1,14.286,15.821Zm2.857,0a.714.714,0,1,1-.714-.714A.714.714,0,0,1,17.143,15.821ZM15.714,17.25A.714.714,0,1,1,15,16.536.714.714,0,0,1,15.714,17.25Zm-1.429,1.429a.714.714,0,1,1-.714-.714A.714.714,0,0,1,14.286,18.679Z" transform="translate(0 -2.25)" fill="#fffcf2"/>
</svg>
