<svg xmlns="http://www.w3.org/2000/svg" width="36" height="15.484" viewBox="0 0 36 15.484">
  <path id="Icon_awesome-arrows-alt-h" data-name="Icon awesome-arrows-alt-h" d="M26.574,11.949v3.239H9.426V11.949a1.688,1.688,0,0,0-2.881-1.193L.494,16.807a1.687,1.687,0,0,0,0,2.386l6.051,6.051a1.688,1.688,0,0,0,2.881-1.193V20.813H26.574v3.239a1.688,1.688,0,0,0,2.881,1.193l6.051-6.051a1.687,1.687,0,0,0,0-2.386l-6.051-6.051a1.687,1.687,0,0,0-2.881,1.193Z" transform="translate(0 -10.258)" fill="#fffcf2"/>
</svg>
