<svg xmlns="http://www.w3.org/2000/svg" xmlns:xlink="http://www.w3.org/1999/xlink" width="109" height="109" viewBox="0 0 109 109">
  <defs>
    <radialGradient id="radial-gradient" cx="0.5" cy="0.5" r="1.1" gradientUnits="objectBoundingBox">
      <stop offset="0" stop-color="#e8ad39"/>
      <stop offset="1" stop-color="#eb5e28"/>
    </radialGradient>
  </defs>
  <g id="Group_24" data-name="Group 24" transform="translate(-0.182)">
    <circle id="Ellipse_6" data-name="Ellipse 6" cx="54.5" cy="54.5" r="54.5" transform="translate(0.182)" fill="url(#radial-gradient)"/>
    <path id="Icon_awesome-shower" data-name="Icon awesome-shower" d="M43.489,13.813,25.848,31.453a2.679,2.679,0,0,1-3.788,0L20.8,30.19a2.679,2.679,0,0,1,0-3.788l.012-.012a12.524,12.524,0,0,1-.378-15.667A8.674,8.674,0,0,0,7.143,18.071V52.25H0V18.071A15.813,15.813,0,0,1,26.52,6.426,12.525,12.525,0,0,1,38.425,8.773l.012-.012a2.679,2.679,0,0,1,3.788,0l1.263,1.263A2.679,2.679,0,0,1,43.489,13.813Zm-.632,8.08a1.786,1.786,0,1,1-1.786-1.786A1.786,1.786,0,0,1,42.857,21.893Zm3.571,0a1.786,1.786,0,1,1,1.786,1.786A1.786,1.786,0,0,1,46.429,21.893Zm10.714,0a1.786,1.786,0,1,1-1.786-1.786A1.786,1.786,0,0,1,57.143,21.893ZM39.286,25.464A1.786,1.786,0,1,1,37.5,23.679,1.786,1.786,0,0,1,39.286,25.464Zm5.357-1.786a1.786,1.786,0,1,1-1.786,1.786A1.786,1.786,0,0,1,44.643,23.679Zm8.929,1.786a1.786,1.786,0,1,1-1.786-1.786A1.786,1.786,0,0,1,53.571,25.464ZM35.714,29.036a1.786,1.786,0,1,1-1.786-1.786A1.786,1.786,0,0,1,35.714,29.036Zm3.571,0a1.786,1.786,0,1,1,1.786,1.786A1.786,1.786,0,0,1,39.286,29.036Zm10.714,0a1.786,1.786,0,1,1-1.786-1.786A1.786,1.786,0,0,1,50,29.036ZM35.714,32.607A1.786,1.786,0,1,1,37.5,34.393,1.786,1.786,0,0,1,35.714,32.607Zm10.714,0a1.786,1.786,0,1,1-1.786-1.786A1.786,1.786,0,0,1,46.429,32.607ZM35.714,36.179a1.786,1.786,0,1,1-1.786-1.786A1.786,1.786,0,0,1,35.714,36.179Zm7.143,0a1.786,1.786,0,1,1-1.786-1.786A1.786,1.786,0,0,1,42.857,36.179ZM39.286,39.75A1.786,1.786,0,1,1,37.5,37.964,1.786,1.786,0,0,1,39.286,39.75Zm-3.571,3.571a1.786,1.786,0,1,1-1.786-1.786A1.786,1.786,0,0,1,35.714,43.321Z" transform="translate(26 27.75)" fill="#252422"/>
  </g>
</svg>
