<!--?xml version="1.0" standalone="no"?-->
              <svg id="sw-js-blob-svg" viewBox="0 0 100 100" xmlns="http://www.w3.org/2000/svg" version="1.1">
                    <defs> 
                        <linearGradient id="sw-gradient" x1="0" x2="1" y1="1" y2="0">
                            <stop id="stop1" stop-color="rgba(37, 36, 34, 1)" offset="0%"></stop>
                            <stop id="stop2" stop-color="rgba(37, 36, 34, 1)" offset="100%"></stop>
                        </linearGradient>
                    </defs>
                <path fill="url(#sw-gradient)" d="M24.7,-25.8C32.1,-23.2,38.3,-15.5,40.5,-6.6C42.6,2.2,40.7,12.3,35.1,18.6C29.5,24.9,20.2,27.4,10.9,31.5C1.6,35.5,-7.6,41,-16.1,39.8C-24.6,38.7,-32.3,30.9,-37.3,21.8C-42.3,12.7,-44.6,2.2,-42.4,-7C-40.2,-16.1,-33.5,-24,-25.7,-26.6C-17.8,-29.2,-8.9,-26.5,-0.1,-26.3C8.6,-26.1,17.3,-28.5,24.7,-25.8Z" width="100%" height="100%" transform="translate(50 50)" stroke-width="0" style="transition: all 0.3s ease 0s;"></path>
              </svg>